<?xml version="1.0" encoding="utf-8"?>
<!-- Generator: Adobe Illustrator 25.2.0, SVG Export Plug-In . SVG Version: 6.00 Build 0)  -->
<svg version="1.1" id="Layer_1" xmlns="http://www.w3.org/2000/svg" xmlns:xlink="http://www.w3.org/1999/xlink" x="0px" y="0px"
	 viewBox="0 0 700 379.1" style="enable-background:new 0 0 700 379.1;" xml:space="preserve">
<g id="Group_1294" transform="translate(-134.735 -149.138)">
	<path id="Path_980" d="M173.9,481.1c6.8-17.3,20.5-57.8,33.8-99.2c31.8-1.6,63.3-7,93.7-16.2c13.3-4.2,27-44.8,13.1-41.3
		c-12.4,3.1-57.4,12.7-94.3,17.5c7.7-25.2,14.3-47.9,17.9-62.4c36.3-6.6,92.5-17.3,104.8-20.2c11.4-2.8,14.9-52.2,2.6-47.8
		c-42,13.7-85.2,23-129.1,27.7c-3.2,0.4-6.2,1.4-8.9,3.2c-4.5,0.5-7.7,2.4-8.1,5.7c-4.9,41.5-24.9,135.2-64.6,229.4
		C134.9,481.6,162.9,508.6,173.9,481.1z"/>
	<path id="Path_981" d="M391.6,279.7c7.7-15.3,13.7-31.4,17.9-48c2.6-14.5-32.6-32.6-37.1-13.1c-1.6,7.9-9.8,32.4-15.4,48.5
		C352,282.3,381.4,299.8,391.6,279.7z"/>
	<path id="Path_982" d="M834.5,174.3c3.5-18.9-31-35.7-35.9-17.2c-5.6,20.5-17.1,57.3-26.4,87c-5.6-2.8-11.8-4.1-18.1-3.8
		c-27.7-0.2-60.4,25.2-75.1,69.2c-1.6,4.8-2.9,9.4-4,13.7c-0.3,0.4-0.5,0.8-0.9,1.2c-14.9,22.1-48.5,49-66,49.4
		c-7.3,0.1-11.7-5.4-12-16.9c25.3-7.4,46.9-24.1,60.5-46.8c15.6-28.2,10.5-54.8-25.6-54.5c-29.4,0.2-55.5,23.8-67.4,53.8
		c-5.9,14.5-9.5,29.8-10.7,45.5c-10.8,13.3-24.7,26.8-30.8,26.8c-7.9,0.2,1.6-28.4,14-66.4c6.6-20.5,15.9-48,23.3-70.6
		c20.2-3.6,40.5-6.8,60.9-9.4c20.7-2.8,6.8-15.9-10-17c-14.4-0.7-28.8-0.2-43,1.5c1.7-5.6,2.9-10.1,3.4-12.9
		c3.5-18.7-30.8-34.3-35.7-17.2c-2.5,8.9-6.6,21.8-11.5,36.9c-12.3,2.4-25,5.3-37.7,8.7c1.5-4.8,2.6-8.8,3.2-11.3
		c4.9-21-30.3-37.1-35.2-20c-3.1,10.6-8.3,27.1-14.5,46c-3.4,1.2-6.7,2.5-10,3.8c-20,7.9-19.8,27-8.9,23.8c3.6-1.1,7.2-2,10.8-3.1
		c-12.6,38.4-26.8,81-34.5,106c-7.9,11.1-29.7,30.4-38.6,30.6c-7.7,0-3.5-13.1,2.3-29.4c8.6-23.8,13.5-36.6,20-56.9
		c7.2-23.3-30.5-38-35.9-22.8c-16.8,47.8-33.6,97.2-38.9,114.9c-5.1,18.2,5.1,36.4,23.1,36.1c17.9-0.4,49.5-24,62.4-37.2
		c2.3,12,10.1,21.9,24.5,21.7c17.3-0.2,42.9-22.8,56.3-37.9c1.9,12.9,9.9,23.9,24.8,23.4c16.2-0.4,45.9-25.8,59.1-40.7
		c4.5,14.2,17.6,24,32.6,24.4c33.1-0.2,70.4-33.3,82-47.6l0-0.1c1.7,23.1,14.7,32.2,29.1,32.2c13.5,0,29.1-10.2,39.8-23.5
		c4.3,10.3,14.2,17.2,25.4,17.5c17.5-0.2,41.7-20.3,59-44.5c2.6-4-7.5-18.7-13.5-11.2c-6.1,7.5-16.1,16.6-21.7,16.6
		c-7.7,0.2-6.3-9.1,15.4-76.2C826.1,201.6,833.1,182.3,834.5,174.3z M480.1,359.2c-10.6,15.5-31.2,36.8-38.9,36.8
		c-7.9,0.2,1.6-28.4,14-66.4c6.5-20,15-45.8,22-67.3c12.5-3.1,25-6,37.5-8.7C502.7,290.3,488.7,332.2,480.1,359.2z M632.2,281.8
		c7.5,0,8.2,11.4,1.2,24.5c-7.8,13.5-20,23.9-34.5,29.5c0.8-3.4,1.7-7,2.8-10.9C612.8,286.7,627.5,281.8,632.2,281.8L632.2,281.8z
		 M745,334.2c-9.8,14.2-18.9,20.7-25.2,20.7c-7.2-0.2-8.6-13.3-0.5-41.7c8.4-29.4,21.9-45,34.7-45c3.5-0.4,7,0.9,9.4,3.5
		C754.9,299.4,746.1,328.9,745,334.2L745,334.2z"/>
	<path id="Path_983" d="M745,412.8c-20.5,0-125.6,3.5-278.3,28.2c-142.2,23.1-264.8,52-304,65.5c-25.8,8.6,7.7,24.9,21.7,21.2
		c14.2-3.7,174.4-39.8,286.9-57.6c172.5-27,282.3-35.4,296-36.6S770.1,412.8,745,412.8z"/>
	<path id="Path_984" d="M788.4,415h3.4v9.9h1.4V415h3.4v-1.4h-8.3L788.4,415z"/>
	<path id="Path_985" d="M805.8,422.9l-3.5-9.3h-2.5v11.3h1.4v-10l3.8,10h1.6l3.7-10.1v10.1h1.4v-11.4h-2.5L805.8,422.9z"/>
</g>
</svg>
